Patient4_TMGait_0pt4_01_left_32_GRF.mot
version=1
nRows=52
nColumns=19
inDegrees=no
endheader
time	F1x	F1y	F1z	M1x	M1y	M1z	F2x	F2y	F2z	M2x	M2y	M2z	EC1x	EC1y	EC1z	EC2x	EC2y	EC2z
39.42	11.9767	-9.9365	0.25212	2.5737	0.27369	-1.564	-12.75	708.7685	-65.8767	238.0539	78.2656	829.8452	-0.0592	0.0182	-0.0073	-0.0462	0.0165	0.9585
39.4334	7.9319	-6.1441	0.25025	1.5139	0.028216	-0.40964	-13.1538	708.6729	-63.7127	237.8952	76.4115	823.5934	-0.0592	0.0182	-0.0073	-0.0462	0.0165	0.9585
39.4469	4.5449	-2.927	0.25362	0.60745	-0.17047	0.55603	-12.7916	710.0851	-61.4416	238.3452	74.0767	819.0445	-0.0592	0.0182	-0.0073	-0.0462	0.0165	0.9585
39.4603	1.9986	-0.45514	0.24726	-0.094726	-0.3033	1.2958	-11.6789	713.7526	-59.213	239.6868	71.4189	817.3147	-0.0592	0.0182	-0.0073	-0.0462	0.0165	0.9585
39.4737	0.24425	1.29	0.24155	-0.59251	-0.39468	1.8431	-9.9494	720.0335	-57.1679	242.049	68.6525	818.9002	-0.0592	0.0182	-0.0073	-0.0462	0.0165	0.9585
39.4871	-0.83551	2.3929	0.22805	-0.9075	-0.44516	2.1966	-7.7944	728.767	-55.3822	245.3687	65.9518	823.614	-0.0592	0.0182	-0.0073	-0.0462	0.0165	0.9585
39.5006	-1.4207	2.972	0.22129	-1.0678	-0.48158	2.3756	-5.4089	739.2908	-53.8774	249.4014	63.4317	830.6683	-0.0592	0.0182	-0.0073	-0.0462	0.0165	0.9585
39.514	-1.6771	3.1386	0.22145	-1.0994	-0.51311	2.3802	-2.951	750.5449	-52.6268	253.7619	61.1351	838.8216	-0.0592	0.0182	-0.0073	-0.0462	0.0165	0.9585
39.5274	-1.7421	2.9515	0.2421	-1.0119	-0.55863	2.1635	-0.53242	761.2546	-51.5899	257.9883	59.063	846.6005	-0.0592	0.0182	-0.0073	-0.0462	0.0165	0.9585
39.5409	-1.7292	2.4295	0.27741	-0.80116	-0.62642	1.6534	1.7981	770.1594	-50.7176	261.6203	57.1827	852.5564	-0.0592	0.0182	-0.0073	-0.0462	0.0165	0.9585
39.5543	-1.6866	1.5447	0.33508	-0.45022	-0.72872	0.73247	4.0125	776.237	-49.9643	264.2798	55.4485	855.5365	-0.0592	0.0182	-0.0073	-0.0462	0.0165	0.9585
39.5677	-1.6507	0.25557	0.40797	0.061696	-0.85967	-0.68628	6.0936	778.8906	-49.2897	265.7375	53.8143	854.8834	-0.0592	0.0182	-0.0073	-0.0462	0.0165	0.9585
39.5811	-1.6079	-1.4802	0.48603	0.75019	-0.99249	-2.6781	8.0319	778.0326	-48.6782	265.9409	52.2649	850.516	-0.0592	0.0182	-0.0073	-0.0462	0.0165	0.9585
39.5946	-1.5214	-3.6288	0.54965	1.6015	-1.0808	-5.2084	9.8024	774.0558	-48.1557	265.0011	50.8398	842.8892	-0.0592	0.0182	-0.0073	-0.0462	0.0165	0.9585
39.608	-1.3152	-6.0215	0.55909	2.547	-1.0449	-8.0653	11.3969	767.7947	-47.7767	263.1791	49.6063	832.9255	-0.0592	0.0182	-0.0073	-0.0462	0.0165	0.9585
39.6214	-0.86905	-8.2961	0.46297	3.4383	-0.77529	-10.7991	12.83	760.4478	-47.6227	260.8574	48.6502	821.9327	-0.0592	0.0182	-0.0073	-0.0462	0.0165	0.9585
39.6349	-0.060481	-9.7818	0.1926	4.0044	-0.1389	-12.5708	14.149	753.3133	-47.7739	258.4518	48.0452	811.3251	-0.0592	0.0182	-0.0073	-0.0462	0.0165	0.9585
39.6483	1.2552	-9.4397	-0.3263	3.8258	1.0129	-12.1093	15.3965	747.4402	-48.2983	256.2941	47.8501	802.261	-0.0592	0.0182	-0.0073	-0.0462	0.0165	0.9585
39.6617	3.1889	-5.8019	-1.1764	2.3137	2.8238	-7.6166	16.6137	743.3095	-49.2146	254.529	48.0725	795.3019	-0.0592	0.0182	-0.0073	-0.0462	0.0165	0.9585
39.6751	5.7812	2.99	-2.4241	-1.2776	5.3841	3.1854	17.8752	740.5946	-50.4609	253.0413	48.6255	790.1341	-0.0592	0.0182	-0.0073	-0.0462	0.0165	0.9585
39.6886	8.9254	19.0537	-4.0782	-7.7938	8.6522	22.8917	19.2299	738.1203	-51.8628	251.448	49.3141	785.5489	-0.0592	0.0182	-0.0073	-0.0462	0.0165	0.9585
39.702	12.2686	44.4256	-6.0563	-18.0421	12.3746	54.0005	20.6468	734	-53.1574	249.1469	49.8819	779.6024	-0.0592	0.0182	-0.0073	-0.0462	0.0165	0.9585
39.7154	15.1186	80.449	-8.1159	-32.5451	15.9679	98.1483	21.9792	725.9541	-54.0162	245.421	50.048	769.9505	-0.0592	0.0182	-0.0073	-0.0462	0.0165	0.9585
39.7289	16.2955	126.8417	-9.7893	-51.1635	18.3816	154.9893	23.0109	711.6965	-54.1	239.562	49.5461	754.2287	-0.0592	0.0182	-0.0073	-0.0462	0.0165	0.9585
39.7423	14.2537	180.5471	-10.2867	-72.631	18.0473	220.7925	23.5434	689.3655	-53.1254	231.0112	48.1645	730.4855	-0.0592	0.0182	-0.0073	-0.0462	0.0165	0.9585
39.7557	8.4848	235.5698	-8.5589	-94.4543	13.513	288.2981	23.4869	658.0307	-50.9351	219.5248	45.7835	697.6976	-0.0592	0.0182	-0.0073	-0.0462	0.0165	0.9585
39.7691	0.52535	285.146	-3.8462	-113.8823	4.6219	349.1747	22.9453	618.0755	-47.5385	205.2978	42.3886	656.1387	-0.0592	0.0182	-0.0073	-0.0462	0.0165	0.9585
39.7826	-7.615	326.9709	2.9779	-129.9882	-6.8079	400.3345	22.158	571.198	-43.1796	188.9422	38.1495	607.4074	-0.0592	0.0182	-0.0073	-0.0462	0.0165	0.9585
39.796	-14.6328	362.5788	11.1974	-143.4057	-19.3582	443.5351	21.408	519.6611	-38.3097	171.234	33.4151	553.6855	-0.0592	0.0182	-0.0073	-0.0462	0.0165	0.9585
39.8094	-19.9008	394.6279	19.6438	-155.2769	-31.4424	481.9822	20.8743	465.6313	-33.3366	152.895	28.5187	497.1155	-0.0592	0.0182	-0.0073	-0.0462	0.0165	0.9585
39.8229	-23.4475	425.3633	27.7118	-166.5813	-42.313	518.4635	20.5325	410.8159	-28.4851	134.4848	23.6775	439.4416	-0.0592	0.0182	-0.0073	-0.0462	0.0165	0.9585
39.8363	-25.491	456.0004	34.591	-177.919	-51.1571	554.4148	20.1852	356.5497	-23.8168	116.4285	19.0057	382.094	-0.0592	0.0182	-0.0073	-0.0462	0.0165	0.9585
39.8497	-26.2621	487.1115	40.1028	-189.6011	-57.8335	590.5406	19.581	303.9464	-19.3863	99.0655	14.6338	326.3056	-0.0592	0.0182	-0.0073	-0.0462	0.0165	0.9585
39.8631	-25.9061	519.1239	44.0963	-201.8522	-62.2748	627.3035	18.4819	254.0768	-15.2978	82.7102	10.7429	273.2739	-0.0592	0.0182	-0.0073	-0.0462	0.0165	0.9585
39.8766	-24.6334	552.1107	46.9674	-214.7049	-65.0063	664.8158	16.7509	208.0149	-11.7453	67.6727	7.5762	224.1963	-0.0592	0.0182	-0.0073	-0.0462	0.0165	0.9585
39.89	-22.7715	585.4897	49.0259	-227.9172	-66.5391	702.3628	14.406	166.8695	-8.9055	54.2749	5.3204	180.2913	-0.0592	0.0182	-0.0073	-0.0462	0.0165	0.9585
39.9034	-20.7118	618.3346	50.7983	-241.083	-67.6111	738.8907	11.5969	131.6125	-6.8999	42.8005	4.0665	142.6153	-0.0592	0.0182	-0.0073	-0.0462	0.0165	0.9585
39.9169	-18.7517	649.7624	52.3832	-253.8274	-68.4753	773.3672	8.5758	102.7644	-5.706	33.4033	3.7259	111.7187	-0.0592	0.0182	-0.0073	-0.0462	0.0165	0.9585
39.9303	-17.0605	678.9777	53.8865	-265.8126	-69.3039	804.8713	5.5664	80.173	-5.1914	26.0289	4.0962	87.4478	-0.0592	0.0182	-0.0073	-0.0462	0.0165	0.9585
39.9437	-15.7248	705.2944	55.1793	-276.747	-69.9883	832.6104	2.7264	63.0481	-5.1124	20.4233	4.8771	68.9697	-0.0592	0.0182	-0.0073	-0.0462	0.0165	0.9585
39.9571	-14.7287	728.1231	56.2674	-286.3719	-70.518	855.9264	0.14673	50.1989	-5.2187	16.2075	5.7768	55.0336	-0.0592	0.0182	-0.0073	-0.0462	0.0165	0.9585
39.9706	-14.0666	747.1162	57.0589	-294.5166	-70.8009	874.483	-2.091	40.3779	-5.2824	12.9852	6.5281	44.3363	-0.0592	0.0182	-0.0073	-0.0462	0.0165	0.9585
39.984	-13.7072	762.1907	57.5866	-301.1129	-70.8605	888.2761	-3.8674	32.5076	-5.1549	10.4137	6.9324	35.7374	-0.0592	0.0182	-0.0073	-0.0462	0.0165	0.9585
39.9974	-13.5778	773.5774	57.8147	-306.2172	-70.6482	897.6713	-5.0867	25.808	-4.7578	8.2422	6.8721	28.4199	-0.0592	0.0182	-0.0073	-0.0462	0.0165	0.9585
40.0109	-13.5501	781.6589	57.8032	-309.9459	-70.1879	903.2146	-5.637	19.8058	-4.0929	6.3169	6.313	21.8761	-0.0592	0.0182	-0.0073	-0.0462	0.0165	0.9585
40.0243	-13.4462	786.8498	57.58	-312.4298	-69.4685	905.4791	-5.4682	14.3858	-3.2225	4.594	5.307	15.9839	-0.0592	0.0182	-0.0073	-0.0462	0.0165	0.9585
40.0377	-13.1499	789.4443	57.2319	-313.7559	-68.5513	904.9	-4.6695	9.6945	-2.2716	3.1132	4.0188	10.8853	-0.0592	0.0182	-0.0073	-0.0462	0.0165	0.9585
40.0511	-12.5644	789.58	56.8523	-313.9535	-67.5217	901.7038	-3.5809	5.9805	-1.3865	1.9473	2.714	6.8316	-0.0592	0.0182	-0.0073	-0.0462	0.0165	0.9585
40.0646	-11.6745	787.3006	56.5366	-313.0284	-66.4862	895.995	-2.4972	3.3188	-0.67205	1.1155	1.5975	3.9106	-0.0592	0.0182	-0.0073	-0.0462	0.0165	0.9585
40.078	-10.4899	782.7443	56.3438	-311.043	-65.5224	887.9474	-1.5631	1.6026	-0.14316	0.58364	0.73408	2.0076	-0.0592	0.0182	-0.0073	-0.0462	0.0165	0.9585
40.0914	-9.0254	776.2384	56.2566	-308.1578	-64.6171	877.8936	-0.84604	0.63311	0.1988	0.28869	0.14259	0.90754	-0.0592	0.0182	-0.0073	-0.0462	0.0165	0.9585
40.1049	-7.2814	768.2898	56.244	-304.615	-63.7254	866.3401	-0.35381	0.20256	0.39427	0.16484	-0.2182	0.3938	-0.0592	0.0182	-0.0073	-0.0462	0.0165	0.9585
